<?xml version="1.0" encoding="UTF-8"?>
<svg id="a" data-name="Layer 1 Image" xmlns="http://www.w3.org/2000/svg" viewBox="0 0 300 300">
  <path fill="#FFFFFF" d="M110.16,273.62c-11.75-.43-24.8-9.8-31.89-18.83-8.89-11.32-15.59-23.42-19.98-37.18-9.94-31.16-11.99-54.61-9.81-87.45,1.05-15.8,4.36-30.67,9.09-45.56,7.38-23.24,25.21-55.31,52.4-57.53,14.37-1.17,28.32,6.34,36.64,17.63-19.92,30.91-24.73,49.91-28.25,85.69-1.78,47.33,1.26,84.79,28.42,125.39-9,11.69-22.14,18.37-36.63,17.83h.01Z"/>
  <path fill="#FFFFFF" d="M252.15,106.52c.56,2.21-1.42,4.35-3.28,4.35l-62.89.03c-2.37,0-4.44-1.75-4.59-4.08-3.12-16.78-8.39-32.32-15.9-47.37-6.44-12.91-14.77-22.25-26.79-32.83,15.26-.87,28.94-1.05,43.31-.39l14.17.65c21.64,4.03,35.49,23.93,44.14,42.71,5.41,11.75,8.46,23.63,11.83,36.93h0Z"/>
  <path fill="#FFFFFF" d="M252.04,193.76c.55-2.22-1.44-4.35-3.29-4.34l-62.89.18c-2.37,0-4.44,1.76-4.58,4.09-3.06,16.79-8.29,32.35-15.75,47.42-6.4,12.93-14.7,22.3-26.69,32.92,15.26.82,28.94.96,43.31.25l14.17-.7c21.62-4.1,35.41-24.05,44-42.86,5.37-11.77,8.38-23.65,11.71-36.96h0Z"/>
</svg>