<?xml version="1.0" encoding="UTF-8"?>
<svg id="Layer_1_xA0_Image" xmlns="http://www.w3.org/2000/svg" version="1.1" viewBox="0 0 300 300">
  <!-- Generator: Adobe Illustrator 30.2.1, SVG Export Plug-In . SVG Version: 2.1.1 Build 1)  -->
  <defs>
    <style>
      .st0 {
        fill: #fff;
      }
    </style>
  </defs>
  <path class="st0" d="M46,275.5V24h208v252H46v-.5ZM252.15,106.52c-3.38-13.3-6.42-25.18-11.83-36.93-8.65-18.78-22.5-38.68-44.14-42.71l-14.17-.65c-14.37-.66-28.05-.48-43.31.39,12.02,10.58,20.35,19.93,26.79,32.83,7.51,15.05,12.78,30.59,15.9,47.37.15,2.33,2.22,4.08,4.59,4.08l62.89-.03c1.86,0,3.84-2.14,3.28-4.35ZM110.16,273.62c14.49.53,27.63-6.14,36.63-17.83-27.16-40.61-30.2-78.06-28.42-125.39,3.52-35.77,8.32-54.78,28.25-85.69-8.32-11.29-22.27-18.81-36.64-17.63-27.19,2.22-45.02,34.29-52.4,57.53-4.73,14.89-8.04,29.76-9.09,45.56-2.18,32.85-.14,56.29,9.81,87.45,4.39,13.76,11.08,25.86,19.98,37.18,7.09,9.02,20.13,18.39,31.89,18.83ZM222.74,258.41c5.56-6.78,9.65-12.72,14.03-19.77,7.42-15.27,13.04-31.22,15.75-48.57l-70.23.03c-3.64,20.21-9.8,38.45-19.46,55.65-6.21,11.17-14.16,19.18-24.53,28.05,20.33.26,38.68.63,57.54-.22,10.81-.48,19.19-8.48,26.89-15.16Z"/>
  <path class="st0" d="M110.16,273.62c-11.75-.43-24.8-9.8-31.89-18.83-8.89-11.32-15.59-23.42-19.98-37.18-9.94-31.16-11.99-54.61-9.81-87.45,1.05-15.8,4.36-30.67,9.09-45.56,7.38-23.24,25.21-55.31,52.4-57.53,14.37-1.17,28.32,6.34,36.64,17.63-19.92,30.91-24.73,49.91-28.25,85.69-1.78,47.33,1.26,84.79,28.42,125.39-9,11.69-22.14,18.37-36.63,17.83Z"/>
  <path class="st0" d="M252.15,106.52c.56,2.21-1.42,4.35-3.28,4.35l-62.89.03c-2.37,0-4.44-1.75-4.59-4.08-3.12-16.78-8.39-32.32-15.9-47.37-6.44-12.91-14.77-22.25-26.79-32.83,15.26-.87,28.94-1.05,43.31-.39l14.17.65c21.64,4.03,35.49,23.93,44.14,42.71,5.41,11.75,8.46,23.63,11.83,36.93Z"/>
  <path class="st0" d="M252.04,193.76c.55-2.22-1.44-4.35-3.29-4.34l-62.89.18c-2.37,0-4.44,1.76-4.58,4.09-3.06,16.79-8.29,32.35-15.75,47.42-6.4,12.93-14.7,22.3-26.69,32.92,15.26.82,28.94.96,43.31.25l14.17-.7c21.62-4.1,35.41-24.05,44-42.86,5.37-11.77,8.38-23.65,11.71-36.96Z"/>
</svg>